<?xml version="1.0" encoding="utf-8"?>
<!-- Generator: Adobe Illustrator 26.2.1, SVG Export Plug-In . SVG Version: 6.00 Build 0)  -->
<svg version="1.1" id="Warstwa_1" xmlns="http://www.w3.org/2000/svg" xmlns:xlink="http://www.w3.org/1999/xlink" x="0px" y="0px"
	 viewBox="0 0 430 430" style="enable-background:new 0 0 430 430;" xml:space="preserve">
<style type="text/css">
	.st0{fill:#9cf4a7;}
	.st1{opacity:0.5;fill:#9cf4a7;}
	.st2{fill:#4BB3FD;}
	.st3{opacity:0.5;fill:#4BB3FD;}
	.st4{fill:#FFC738;}
	.st5{fill:#EBE6EF;}
	.st6{opacity:0.5;fill:#EBE6EF;}
	.st7{fill:#646E78;}
	.st8{opacity:0.5;fill:#646E78;}
	.st9{opacity:0.5;fill:#FFC738;}
	.st10{opacity:0.5;}
	.st11{fill:#121331;}
	.st12{fill:#FFFFFF;}
	.st13{fill:#3A3347;}
	.st14{fill:none;}
	.st15{opacity:0.5;fill:#F9C9C0;}
	.st16{fill:#eee966;}
	.st17{opacity:0.5;fill:#eee966;}
	.st18{fill:#F28BA8;}
	.st19{opacity:0.5;fill:#F28BA8;}
	.st20{fill:#F24C00;}
	.st21{opacity:0.5;fill:#F24C00;}
	.st22{fill:#92140C;}
	.st23{opacity:0.5;fill:#3A3347;}
	.st24{opacity:0.5;fill:#92140C;}
	.st25{fill:none;stroke:#121331;stroke-width:7;stroke-linecap:round;stroke-linejoin:round;stroke-miterlimit:10;}
	.st26{fill:#F9C9C0;}
</style>
<path class="st16" d="M321.3,136.5c-0.2-0.2-0.5-0.4-0.8-0.6c-0.8-0.6-1.6-1.2-2.4-1.7c-0.4-0.3-0.8-0.5-1.2-0.8
	c-3.3-2.1-6.9-3.8-10.6-5.2c-0.4-0.1-0.8-0.3-1.1-0.4c-1.6-0.5-3.2-1-4.8-1.4c-0.3-0.1-0.7-0.2-1-0.2c-0.8-0.2-1.5-0.3-2.3-0.5
	c-0.3-0.1-0.7-0.1-1-0.2c-1.6-0.3-3.3-0.5-5-0.6c-0.5,0-1-0.1-1.4-0.1c-0.5,0-1,0-1.4-0.1s-1,0-1.4,0c-4.9,0-9.8,0.6-14.6,1.8
	c12.3,9.7,19.2,22.5,19.2,35.7c0,0.4,0,0.8,0,1.2s0,0.8-0.1,1.2c0,0.3-0.1,0.7-0.1,1c-0.1,0.5-0.1,1-0.2,1.5c0,0.4-0.1,0.8-0.2,1.1
	c-0.1,0.5-0.2,0.9-0.2,1.4c-0.1,0.3-0.1,0.7-0.2,1c-0.1,0.3-0.1,0.6-0.2,0.9c-0.2,0.8-0.4,1.6-0.7,2.5c-0.1,0.3-0.2,0.6-0.3,0.8
	c-0.1,0.2-0.2,0.5-0.3,0.7c-0.1,0.4-0.3,0.7-0.4,1.1c-0.2,0.4-0.3,0.8-0.5,1.2c-0.4,1-0.9,1.9-1.4,2.9c-0.2,0.3-0.3,0.6-0.5,1
	c-0.5,1-1.1,1.9-1.7,2.9c-0.2,0.3-0.4,0.6-0.6,1c-0.2,0.3-0.4,0.6-0.7,0.9c-0.2,0.3-0.4,0.6-0.7,0.9c-0.8,1-1.6,2-2.4,3
	c-0.2,0.2-0.4,0.5-0.6,0.7c-0.5,0.6-1.1,1.2-1.7,1.8c-2,2.1-5.6,0.4-5.1-2.5c0-0.2,0.1-0.4,0.1-0.6c0.1-0.6,0.2-1.2,0.2-1.8
	c0.1-0.6,0.1-1.2,0.1-1.8c0-0.3,0-0.6,0-0.9c0.1-3.1-0.2-6.1-0.9-8.9c0-0.1-0.1-0.3-0.1-0.4c-0.2-0.8-0.4-1.6-0.7-2.4
	c-0.1-0.3-0.2-0.6-0.3-0.8c-1.2-3.4-3-6.6-5.2-9.6c-0.2-0.3-0.4-0.5-0.6-0.8c-2.8-3.6-6.4-6.9-10.5-9.9c-1.1-0.8-2.1-1.5-3.3-2.2
	c-5.1-3.2-10.8-6-17-8.4c1,12,3,23.9,5.7,35.8c0.5,2.3,1,4.6,1.6,6.9c3.4,13.9,7.5,27.7,12,41.6c0.7,2.3,1.5,4.5,2.2,6.8
	c15.4,46.3,33.5,92.6,36.1,139c0.1,1.7-1.3,3.2-3,3.2h-47c-0.1,0-0.3,0-0.4,0c-0.1,0-0.1,0-0.2,0c-0.1,0-0.1,0-0.2-0.1
	c-0.4-0.1-0.7-0.3-1-0.5c0,0,0,0,0,0c-0.1-0.1-0.2-0.1-0.2-0.2c-0.1-0.1-0.1-0.2-0.2-0.2c-0.1-0.1-0.1-0.2-0.2-0.3
	c-0.1-0.1-0.1-0.2-0.2-0.4c-0.2-0.4-0.3-0.8-0.2-1.3c0.4-15.1-0.9-30.2-3.2-45.4c-2.4-16.2-6-32.3-10-48.5
	c-8-32.3-17.5-64.6-22.4-97c-1.7-11.4-2.8-22.8-3.1-34.2h0l0,0v0c-0.3,0.2-0.5,0.5-0.8,0.7c-0.1,0.1-0.1,0.1-0.2,0.2
	c-0.5,0.4-1,0.9-1.5,1.3c0,0-0.1,0.1-0.1,0.1c-0.2,0.2-0.5,0.4-0.7,0.6c-0.2,0.2-0.5,0.4-0.7,0.6c-0.2,0.2-0.3,0.3-0.5,0.5
	c-0.1,0.1-0.3,0.2-0.4,0.4c-0.2,0.2-0.4,0.3-0.5,0.5c-0.3,0.3-0.6,0.6-0.9,0.9c-0.2,0.2-0.5,0.5-0.7,0.7c-0.2,0.2-0.5,0.5-0.7,0.7
	c-0.1,0-0.1,0.1-0.1,0.1c0,0,0,0,0,0c-1.1,1.1-2.1,2.3-3.1,3.4c-0.5,0.6-1,1.2-1.5,1.8c-0.4,0.5-0.8,1-1.2,1.6
	c-0.3,0.4-0.6,0.7-0.8,1.1c-0.3,0.4-0.5,0.7-0.8,1.1c-0.3,0.4-0.5,0.8-0.8,1.1c-0.2,0.3-0.4,0.7-0.6,1c-0.4,0.6-0.8,1.2-1.2,1.9
	c-0.3,0.5-0.5,0.9-0.8,1.3c-0.2,0.3-0.4,0.7-0.6,1c-0.2,0.3-0.4,0.7-0.5,1c-0.1,0.3-0.3,0.5-0.4,0.8c-0.4,0.9-0.8,1.7-1.2,2.6
	c-0.4,0.9-0.8,1.8-1.1,2.8c-0.1,0.3-0.2,0.6-0.3,0.9c0,0,0,0.1,0,0.1c-0.1,0.1-0.1,0.3-0.1,0.4c-0.1,0.2-0.1,0.5-0.2,0.7
	c-0.1,0.2-0.1,0.4-0.2,0.7c-0.1,0.5-0.2,0.9-0.4,1.4c-0.1,0.5-0.2,0.9-0.3,1.4c-0.1,0.5-0.2,0.9-0.3,1.4c-0.1,0.3-0.1,0.7-0.1,1
	c0,0.3-0.1,0.6-0.1,0.8c0,0,0,0,0,0c0,0.1,0,0.3,0,0.4c0,0.2,0,0.4-0.1,0.6c0,0.4-0.1,0.8-0.1,1.1c0,0.1,0,0.2,0,0.3
	c0,0,0,0.1,0,0.1c0,0.2,0,0.3,0,0.5c0,0.1,0,0.3,0,0.4c0,0.1,0,0.3,0,0.4c0,0.1,0,0.3,0,0.4c0,0.3,0,0.7,0,1c0,0.3,0,0.6,0,0.8
	c0,0.2,0,0.3,0,0.5c0,0,0,0,0,0.1c0,0.3,0,0.5,0.1,0.8c0,0.2,0,0.3,0,0.5c0.1,0.5,0.1,1,0.2,1.5l0,0.1c0,0.2,0.1,0.3,0.1,0.5
	s0.1,0.3,0.1,0.5c0,0,0,0,0,0.1c0,0,0,0.1,0,0.1c0,0.1,0.1,0.3,0.1,0.4c0.1,0.2,0.1,0.5,0.2,0.7c0.1,0.4,0.2,0.9,0.3,1.3
	c0.1,0.3,0.2,0.6,0.3,0.9c0,0.1,0.1,0.2,0.1,0.3c0.1,0.3,0.2,0.6,0.3,0.9c0.1,0.4,0.3,0.8,0.4,1.2c0.1,0.3,0.2,0.6,0.4,1
	c0.2,0.4,0.3,0.8,0.5,1.2c0.1,0.3,0.3,0.6,0.4,1c0.4,0.8,0.8,1.6,1.3,2.5c0.5,0.9,0.5,1.8,0.2,2.6c-0.5,1.5-2.2,2.5-3.9,1.8
	c0,0-0.1,0-0.1,0c-2.3-1-4.4-2.1-6.3-3.3c-0.4-0.3-0.9-0.5-1.3-0.8c-0.1-0.1-0.1-0.1-0.2-0.2c-0.4-0.3-0.9-0.6-1.3-0.9
	c0,0-0.1,0-0.1-0.1c-0.4-0.3-0.8-0.6-1.2-0.9c-0.1,0-0.1-0.1-0.1-0.1c-0.4-0.3-0.8-0.6-1.2-0.9c-1.7-1.4-3.3-2.9-4.8-4.5
	c-0.2-0.2-0.4-0.5-0.6-0.7c-0.2-0.2-0.3-0.4-0.5-0.6c-0.2-0.2-0.4-0.5-0.6-0.7c-0.1-0.1-0.2-0.3-0.4-0.5c-0.2-0.3-0.5-0.6-0.7-1
	c-0.3-0.4-0.6-0.8-0.8-1.2c-0.6-0.8-1.1-1.7-1.6-2.6c-0.2-0.4-0.5-0.8-0.7-1.3c-0.2-0.3-0.3-0.6-0.5-0.9c-0.1-0.2-0.2-0.5-0.4-0.8
	c-0.1-0.2-0.2-0.3-0.2-0.5c-0.1-0.3-0.2-0.5-0.3-0.8c-0.1-0.3-0.2-0.5-0.3-0.8c-0.2-0.4-0.3-0.9-0.5-1.3c-0.1-0.4-0.3-0.8-0.4-1.3
	c-0.2-0.7-0.4-1.3-0.6-2c-0.1-0.5-0.2-1-0.3-1.5c0,0,0,0,0,0c-0.1-0.5-0.2-1-0.3-1.4c0-0.2-0.1-0.3-0.1-0.5c-0.1-0.3-0.1-0.7-0.2-1
	c0-0.2,0-0.3-0.1-0.5c-0.1-0.4-0.1-0.9-0.1-1.3c0,0,0-0.1,0-0.2c0-0.3-0.1-0.7-0.1-1c0-0.3,0-0.6,0-0.8c-0.5-14.7,6.7-30.7,21.1-44
	c-0.5-0.2-0.9-0.5-1.4-0.7c-0.2-0.1-0.4-0.2-0.5-0.2c-0.4-0.2-0.8-0.4-1.2-0.5c-0.6-0.3-1.2-0.5-1.9-0.8c-0.6-0.2-1.1-0.5-1.7-0.6
	c-0.6-0.2-1.2-0.4-1.7-0.6c-0.6-0.2-1.2-0.4-1.7-0.5c-1.2-0.3-2.3-0.7-3.5-0.9c-0.6-0.1-1.2-0.3-1.8-0.4c-0.6-0.1-1.2-0.2-1.8-0.3
	c-0.6-0.1-1.2-0.2-1.8-0.3c-0.6-0.1-1.2-0.2-1.8-0.2c-0.8-0.1-1.6-0.2-2.4-0.2c-1-0.1-1.9-0.1-2.9-0.1c-0.6,0-1.2,0-1.9,0
	c-0.4,0-0.8,0-1.1,0c-0.2,0-0.3,0-0.5,0c-0.1,0-0.3,0-0.4,0c-0.1,0-0.2,0-0.3,0h-0.1c-0.3,0-0.5,0-0.8,0h0c0,0,0,0,0,0
	c0,0-0.1,0-0.1,0c-0.1,0-0.2,0-0.3,0c-0.1,0-0.2,0-0.3,0c-0.2,0-0.5,0-0.8,0.1c-0.2,0-0.4,0-0.6,0c-0.1,0-0.2,0-0.4,0
	c-0.9,0.1-1.9,0.2-2.9,0.3c-0.9,0.1-1.9,0.3-2.8,0.5c-0.5,0.1-1,0.2-1.5,0.3c-0.3,0.1-0.6,0.1-0.9,0.2c-0.2,0-0.5,0.1-0.7,0.2
	c0,0-0.1,0-0.1,0c0,0-0.1,0-0.1,0c-0.1,0-0.2,0-0.2,0.1c-0.1,0-0.1,0-0.2,0c-0.1,0-0.3,0.1-0.4,0.1c-0.5,0.1-0.9,0.2-1.4,0.4
	c-0.1,0-0.1,0-0.2,0.1c-0.3,0.1-0.7,0.2-1,0.3c-1,0.3-1.9,0.7-2.9,1c-0.4,0.2-0.9,0.4-1.3,0.5c-0.4,0.2-0.9,0.4-1.3,0.6
	c-0.4,0.2-0.7,0.3-1.1,0.5c-0.1,0.1-0.3,0.1-0.5,0.2c-0.4,0.2-0.8,0.4-1.2,0.6c-0.4,0.2-0.7,0.4-1.1,0.6c-0.4,0.2-0.8,0.5-1.3,0.7
	c-0.4,0.2-0.7,0.4-1,0.6c-0.3,0.2-0.6,0.4-0.9,0.6c-0.3,0.2-0.5,0.4-0.8,0.5c-0.3,0.2-0.7,0.5-1,0.7c-0.4,0.3-0.7,0.5-1.1,0.8
	c-0.3,0.2-0.5,0.4-0.8,0.6c-0.9,0.7-2,0.8-2.9,0.5h0c-1.3-0.5-2.2-1.8-1.9-3.4c0,0,0,0,0,0c0.1-0.3,0.2-0.7,0.3-1
	c0.2-0.6,0.4-1.2,0.6-1.9c0.2-0.6,0.5-1.2,0.7-1.8c0.2-0.4,0.3-0.8,0.5-1.2c0.2-0.4,0.3-0.8,0.5-1.2c0.2-0.4,0.4-0.8,0.5-1.2
	s0.4-0.8,0.6-1.2c0.4-0.8,0.8-1.5,1.2-2.3c0.2-0.4,0.4-0.7,0.6-1.1l0,0c0.2-0.4,0.4-0.7,0.7-1.1c0.7-1.1,1.4-2.1,2.1-3.2
	c0.2-0.3,0.5-0.7,0.8-1c0.3-0.3,0.5-0.7,0.8-1c1.3-1.7,2.7-3.2,4.2-4.7c0.3-0.3,0.6-0.6,0.9-0.9c0.3-0.3,0.6-0.6,0.9-0.9
	c0.2-0.2,0.5-0.4,0.7-0.6c1-0.9,2-1.8,3.1-2.6c0.3-0.3,0.7-0.5,1-0.8c0.3-0.2,0.7-0.5,1-0.7c0.3-0.2,0.7-0.5,1-0.7
	c0.3-0.2,0.7-0.5,1-0.7c0.3-0.2,0.5-0.3,0.8-0.5c0.8-0.5,1.5-0.9,2.3-1.3c0.3-0.2,0.6-0.4,1-0.5c1.2-0.6,2.4-1.2,3.6-1.8
	c0.4-0.2,0.8-0.3,1.2-0.5c0.5-0.2,1-0.4,1.5-0.6s1-0.4,1.5-0.5c0.1,0,0.2-0.1,0.3-0.1c0.3-0.1,0.6-0.2,0.9-0.3
	c1.2-0.4,2.3-0.7,3.5-1c0.3-0.1,0.7-0.2,1-0.2c1.2-0.3,2.5-0.5,3.8-0.7c0.3,0,0.6-0.1,0.9-0.1c1.5-0.2,3-0.4,4.5-0.4
	c0.3,0,0.6,0,0.9-0.1c0.4,0,0.7,0,1,0c0.4,0,0.9,0,1.3,0c4.6,0,9.4,0.6,14.1,1.8c-0.6-0.8-1.3-1.5-2-2.2c-0.9-1-1.9-1.9-2.9-2.8
	c-0.4-0.3-0.7-0.7-1.1-1c-0.2-0.2-0.4-0.4-0.6-0.6c-0.5-0.4-1-0.8-1.5-1.2c-0.2-0.2-0.5-0.4-0.7-0.6c-0.2-0.2-0.5-0.4-0.7-0.5
	c-0.5-0.4-1-0.7-1.5-1.1c-0.8-0.6-1.6-1.1-2.5-1.6c-0.4-0.3-0.8-0.5-1.3-0.8c-0.4-0.2-0.9-0.5-1.3-0.7c-0.4-0.2-0.9-0.5-1.3-0.7
	c-0.4-0.2-0.9-0.5-1.3-0.7c-0.4-0.2-0.9-0.4-1.3-0.6c-0.5-0.2-0.9-0.4-1.4-0.6c-0.5-0.2-0.9-0.4-1.4-0.5c-0.3-0.1-0.7-0.2-1-0.4
	c-0.3-0.1-0.7-0.2-1-0.4c-0.4-0.1-0.8-0.3-1.3-0.4c-0.8-0.2-1.6-0.5-2.3-0.7c-0.4-0.1-0.9-0.2-1.3-0.3c-0.6-0.2-1.3-0.3-1.9-0.4
	c-0.6-0.1-1.3-0.2-1.9-0.3c-0.4-0.1-0.8-0.1-1.2-0.2c-0.2,0-0.4,0-0.5-0.1c-0.3,0-0.6-0.1-0.9-0.1c-0.3,0-0.5-0.1-0.8-0.1
	c-0.9-0.1-1.8-0.1-2.7-0.2c-0.6,0-1.1,0-1.7,0c-0.5,0-1.1,0-1.6,0c-0.4,0-0.9,0-1.3,0.1c-0.2,0-0.5,0-0.8,0.1h-0.1
	c-1.3,0.1-2.3-0.6-2.9-1.6c-0.6-1.1-0.5-2.5,0.6-3.5c0,0,0.1-0.1,0.1-0.1c0.8-0.7,1.6-1.4,2.4-2c0.5-0.4,0.9-0.7,1.4-1.1
	c0.5-0.3,0.9-0.7,1.4-1c0.5-0.3,0.9-0.6,1.4-1c0.5-0.3,1-0.6,1.4-0.9c0.4-0.3,0.9-0.5,1.3-0.8c0.1-0.1,0.3-0.2,0.4-0.2
	c0.4-0.2,0.8-0.5,1.2-0.7c0.5-0.3,1-0.5,1.5-0.8c0.5-0.3,1-0.5,1.5-0.8c0.5-0.2,1-0.5,1.5-0.7c0.5-0.2,1-0.5,1.5-0.7
	c1.1-0.5,2.1-0.9,3.2-1.3c0.3-0.1,0.7-0.2,1-0.4c0.6-0.2,1.2-0.4,1.8-0.6c0.5-0.2,0.9-0.3,1.4-0.4c0.6-0.2,1.1-0.3,1.7-0.4
	c0.5-0.1,0.9-0.2,1.4-0.3c0.5-0.1,1-0.2,1.4-0.3c0.3-0.1,0.6-0.1,1-0.2c0.3,0,0.6-0.1,0.8-0.1c0,0,0.1,0,0.1,0
	c0.4-0.1,0.8-0.1,1.2-0.2c0.5-0.1,1-0.1,1.5-0.2c0,0,0,0,0,0c0.5-0.1,1-0.1,1.5-0.1c0.4,0,0.7-0.1,1.1-0.1c0.3,0,0.6,0,0.9,0
	c0.3,0,0.7,0,1,0c0.5,0,1,0,1.5,0c24.1,0,46.1,15.9,51.2,43.8c1.4-7.8,4.2-14.7,8-20.6c0.4-0.6,0.8-1.3,1.3-1.9
	c9.8-13.8,25.3-21.3,41.9-21.3c0.5,0,1,0,1.5,0c0.3,0,0.7,0,1,0c0.3,0,0.6,0,0.9,0c0.4,0,0.7,0,1.1,0.1c0.5,0,0.9,0.1,1.4,0.1
	c1,0.1,2,0.2,2.9,0.4c0.3,0.1,0.6,0.1,0.9,0.2c0.6,0.1,1.3,0.2,1.9,0.4c0.3,0.1,0.7,0.1,1,0.2c0.4,0.1,0.8,0.2,1.2,0.3
	c1.5,0.4,3.1,0.8,4.6,1.4c0.3,0.1,0.7,0.2,1,0.4c1.1,0.4,2.2,0.8,3.3,1.3c0.5,0.2,0.9,0.4,1.4,0.6c0.4,0.2,0.7,0.3,1.1,0.5
	c0.3,0.2,0.6,0.3,1,0.5c0.1,0.1,0.3,0.1,0.4,0.2c0.3,0.2,0.7,0.4,1.1,0.6c0.4,0.2,0.8,0.5,1.2,0.7c0.4,0.2,0.8,0.5,1.2,0.7
	c0.4,0.2,0.8,0.5,1.2,0.7c0.3,0.2,0.6,0.4,0.9,0.6c0.2,0.2,0.5,0.3,0.7,0.5c0.4,0.3,0.9,0.6,1.3,0.9c0.5,0.3,0.9,0.7,1.4,1
	c0.5,0.3,0.9,0.7,1.4,1.1c0.8,0.6,1.6,1.3,2.4,2c0,0,0,0,0,0c2.2,1.9,0.6,5.4-2.2,5.2h0c-0.6-0.1-1.2-0.1-1.8-0.1
	c-15-0.6-29.7,5.6-40.4,16.3c-0.5,0.5-1.1,1.1-1.6,1.6v0c-0.3,0.3-0.5,0.5-0.8,0.8c-0.2,0.3-0.5,0.6-0.7,0.8
	c4.8-1.2,9.5-1.8,14.1-1.8c0.4,0,0.9,0,1.3,0c0.3,0,0.7,0,1,0c0.3,0,0.6,0,1,0.1c0.9,0,1.8,0.1,2.7,0.2c0.3,0,0.5,0.1,0.8,0.1
	c0.3,0,0.6,0.1,0.9,0.1c0.3,0,0.5,0.1,0.8,0.1c1.3,0.2,2.6,0.4,3.9,0.7c0.4,0.1,0.7,0.2,1.1,0.3c0.6,0.1,1.2,0.3,1.8,0.5
	c0.3,0.1,0.6,0.2,0.9,0.2c0.9,0.3,1.8,0.6,2.7,0.9c0.7,0.2,1.4,0.5,2.1,0.8c0.3,0.1,0.7,0.3,1,0.4c0.3,0.2,0.7,0.3,1,0.5
	c0.2,0.1,0.4,0.2,0.6,0.3c0.3,0.1,0.6,0.3,0.9,0.4c0.2,0.1,0.4,0.2,0.6,0.3c0.3,0.1,0.6,0.3,0.9,0.5c1.3,0.7,2.6,1.4,3.8,2.2
	c0.3,0.2,0.6,0.4,0.9,0.6c0.2,0.1,0.5,0.3,0.7,0.5c0.4,0.2,0.8,0.5,1.1,0.8c0.3,0.2,0.6,0.4,0.9,0.6c0.9,0.7,1.8,1.4,2.6,2.1
	c0.5,0.5,1.1,1,1.6,1.4c0.3,0.2,0.5,0.5,0.8,0.8c0.3,0.3,0.5,0.5,0.8,0.8c0.2,0.2,0.5,0.5,0.7,0.7c0.8,0.8,1.6,1.6,2.3,2.5
	c0.5,0.6,1,1.1,1.4,1.7c0.2,0.3,0.5,0.6,0.7,0.9c0.2,0.3,0.4,0.6,0.7,0.9c0.4,0.6,0.9,1.2,1.3,1.8c0.2,0.3,0.4,0.6,0.6,0.9
	c1,1.6,2,3.2,2.8,4.9c0.2,0.3,0.3,0.7,0.5,1c0,0,0,0,0,0c0.2,0.3,0.3,0.7,0.5,1c0.2,0.3,0.3,0.7,0.5,1c0.6,1.4,1.2,2.8,1.7,4.3
	c0.1,0.3,0.2,0.7,0.4,1c0.1,0.4,0.3,0.8,0.4,1.2c0,0,0,0,0,0C326.9,136.1,323.6,138.3,321.3,136.5z"/>
<path class="st17" d="M256.4,326.9c2.5,16.2,3.7,32.3,3.1,48.5h-17.4c-1.7,0-3-1.4-3-3.1c0.4-15.1-0.9-30.3-3.2-45.4
	c-2.4-16.2-6-32.3-10-48.5c-8-32.3-17.5-64.6-22.4-97c-0.6-4-1.1-8-1.6-12.1c-0.8-7.4-1.4-14.8-1.6-22.2c-0.1,0.1-0.1,0.1-0.2,0.2
	c0.1-0.1-1.3-14.8-1.2-14.9c-2-20.2,23-4,21.7,14.9c0,0.1,0.1-0.1,0.2-0.2c0.3,11.4,1.4,22.8,3.1,34.2c4.9,32.3,14.4,64.6,22.4,97
	C250.4,294.6,254,310.7,256.4,326.9z"/>
<path class="st0" d="M321.3,136.5c-0.2-0.2-0.5-0.4-0.8-0.6c-0.8-0.6-1.6-1.2-2.4-1.7c-0.4-0.3-0.8-0.5-1.2-0.8
	c-3.3-2.1-6.9-3.8-10.6-5.2c-0.4-0.1-0.8-0.3-1.1-0.4c-1.6-0.5-3.2-1-4.8-1.4c-0.3-0.1-0.7-0.2-1-0.2c-0.8-0.2-1.5-0.3-2.3-0.5
	c-0.3-0.1-0.7-0.1-1-0.2c-1.6-0.3-3.3-0.5-5-0.6c-0.5,0-1-0.1-1.4-0.1c-0.5,0-1,0-1.4-0.1s-1,0-1.4,0c-4.9,0-9.8,0.6-14.6,1.8
	c12.3,9.7,19.2,22.5,19.2,35.7c0,0.4,0,0.8,0,1.2s0,0.8-0.1,1.2c0,0.3-0.1,0.7-0.1,1c-0.1,0.5-0.1,1-0.2,1.5c0,0.4-0.1,0.8-0.2,1.1
	c-0.1,0.5-0.2,0.9-0.2,1.4c-0.1,0.3-0.1,0.7-0.2,1c-0.1,0.3-0.1,0.6-0.2,0.9c-0.2,0.8-0.4,1.6-0.7,2.5c-0.1,0.3-0.2,0.6-0.3,0.8
	c-0.1,0.2-0.2,0.5-0.3,0.7c-0.1,0.4-0.3,0.7-0.4,1.1c-0.2,0.4-0.3,0.8-0.5,1.2c-0.4,1-0.9,1.9-1.4,2.9c-0.2,0.3-0.3,0.6-0.5,1
	c-0.5,1-1.1,1.9-1.7,2.9c-0.2,0.3-0.4,0.6-0.6,1c-0.2,0.3-0.4,0.6-0.7,0.9c-0.2,0.3-0.4,0.6-0.7,0.9c-0.8,1-1.6,2-2.4,3
	c-0.2,0.2-0.4,0.5-0.6,0.7c-0.5,0.6-1.1,1.2-1.7,1.8c-2,2.1-5.6,0.4-5.1-2.5c0-0.2,0.1-0.4,0.1-0.6c0.1-0.6,0.2-1.2,0.2-1.8
	c0.1-0.6,0.1-1.2,0.1-1.8c0-0.3,0-0.6,0-0.9c0.1-3.1-0.2-6.1-0.9-8.9c0-0.1-0.1-0.3-0.1-0.4c-0.2-0.8-0.4-1.6-0.7-2.4
	c-0.1-0.3-0.2-0.6-0.3-0.8c-1.2-3.4-3-6.6-5.2-9.6c-0.2-0.3-0.4-0.5-0.6-0.8c-2.8-3.6-6.4-6.9-10.5-9.9c-1.1-0.8-2.1-1.5-3.3-2.2
	c-5.1-3.2-10.8-6-17-8.4h0c-0.2-0.1-0.5-0.2-0.7-0.3c-2.6-1-9.5-3.4-14.6-4.1c-1.7-0.2-3.1-0.3-4.1,0v0c-0.1,0-0.3,0-0.4,0.1
	c-0.1,0-0.2,0-0.3,0.1c-0.1,0-0.2,0-0.2,0.1c-1.3,0.4-2.8,1.2-4.4,2.2c-0.2,0.1-0.3,0.2-0.5,0.3c-0.6,0.4-1.3,0.9-1.9,1.3
	c-0.3,0.2-0.5,0.4-0.8,0.6c-0.4,0.3-0.7,0.5-1.1,0.8c-0.3,0.2-0.6,0.5-1,0.8c-0.2,0.2-0.4,0.3-0.6,0.5c-1.3,1.1-2.5,2.1-3.4,2.9h0v0
	h0c-0.1,0.1-0.1,0.1-0.2,0.2h0c-0.2,0.2-0.4,0.3-0.6,0.5c-0.1,0.1-0.1,0.1-0.2,0.2c-0.5,0.4-1,0.9-1.5,1.3c0,0-0.1,0.1-0.1,0.1
	c-0.2,0.2-0.5,0.4-0.7,0.6c-0.2,0.2-0.5,0.4-0.7,0.6c-0.2,0.2-0.3,0.3-0.5,0.5c-0.1,0.1-0.3,0.2-0.4,0.4c-0.2,0.2-0.4,0.3-0.5,0.5
	c-0.3,0.3-0.6,0.6-0.9,0.9c-0.2,0.2-0.5,0.5-0.7,0.7c-0.2,0.2-0.5,0.5-0.7,0.7c-0.1,0-0.1,0.1-0.1,0.1c0,0,0,0,0,0c0,0,0,0,0,0
	c-1.1,1.1-2.1,2.3-3.1,3.4c-0.5,0.6-1,1.2-1.5,1.8c-0.4,0.5-0.8,1-1.2,1.6c-0.3,0.4-0.6,0.7-0.8,1.1c-0.3,0.4-0.5,0.7-0.8,1.1
	c-0.3,0.4-0.5,0.8-0.8,1.1c-0.2,0.3-0.4,0.7-0.6,1c-0.4,0.6-0.8,1.2-1.2,1.9c-0.3,0.5-0.5,0.9-0.8,1.3c-0.2,0.3-0.4,0.7-0.6,1
	c-0.2,0.3-0.4,0.7-0.5,1c-0.1,0.3-0.3,0.5-0.4,0.8c-0.4,0.9-0.8,1.7-1.2,2.6c-0.4,0.9-0.8,1.8-1.1,2.8c-0.1,0.3-0.2,0.6-0.3,0.9
	c0,0,0,0.1,0,0.1c-0.1,0.2-0.1,0.5-0.2,0.7c0,0,0,0.1-0.1,0.2c0,0.1-0.1,0.1-0.1,0.2c-0.1,0.2-0.1,0.4-0.2,0.7
	c-0.1,0.5-0.2,0.9-0.4,1.4c-0.1,0.5-0.2,0.9-0.3,1.4c-0.1,0.5-0.2,0.9-0.3,1.4c-0.1,0.3-0.1,0.7-0.1,1c0,0.3-0.1,0.6-0.1,0.8
	c0,0,0,0,0,0c0,0.1,0,0.3,0,0.4c0,0.2,0,0.4-0.1,0.6c0,0.4-0.1,0.8-0.1,1.1c0,0.1,0,0.2,0,0.3c0,0,0,0.1,0,0.1c0,0.2,0,0.3,0,0.5
	c0,0.1,0,0.3,0,0.4v0.8c0,0.3,0,0.7,0,1c0,0.2,0,0.4,0,0.5c0,0.3,0,0.5,0.1,0.8c0,0.3,0,0.5,0.1,0.8c0,0.3,0.1,0.6,0.1,1
	c0,0.1,0,0.3,0.1,0.4c0,0.2,0.1,0.3,0.1,0.5l0,0.1c0,0.2,0.1,0.3,0.1,0.5s0.1,0.3,0.1,0.5c0,0,0,0,0,0.1c0,0,0,0.1,0,0.1
	c0,0.1,0.1,0.3,0.1,0.4h0c0,0.2,0.1,0.5,0.1,0.7c0.1,0.4,0.2,0.9,0.3,1.3c0.1,0.3,0.2,0.6,0.3,0.9c0,0.1,0.1,0.2,0.1,0.3
	c0.1,0.3,0.2,0.6,0.3,0.9c0.1,0.4,0.3,0.8,0.4,1.2c0.1,0.3,0.2,0.6,0.4,1c0.2,0.4,0.3,0.8,0.5,1.2c0.1,0.3,0.3,0.6,0.4,1
	c0.4,0.8,0.8,1.6,1.3,2.5c0.5,0.9,0.5,1.8,0.2,2.6c-0.5,1.5-2.2,2.5-3.9,1.8c0,0-0.1,0-0.1,0c-2.3-1-4.4-2.1-6.3-3.3
	c-0.4-0.3-0.9-0.5-1.3-0.8c-0.1-0.1-0.1-0.1-0.2-0.2c-0.4-0.3-0.9-0.6-1.3-0.9c0,0-0.1,0-0.1-0.1c-0.4-0.3-0.8-0.6-1.2-0.9
	c-0.1,0-0.1-0.1-0.1-0.1c-0.4-0.3-0.8-0.6-1.2-0.9c-1.7-1.4-3.3-2.9-4.8-4.5c-0.2-0.2-0.4-0.5-0.6-0.7c-0.2-0.2-0.3-0.4-0.5-0.6
	c-0.2-0.2-0.4-0.5-0.6-0.7c-0.1-0.1-0.2-0.3-0.4-0.5c-0.2-0.3-0.5-0.6-0.7-1c-0.3-0.4-0.6-0.8-0.8-1.2c-0.6-0.8-1.1-1.7-1.6-2.6
	c-0.2-0.4-0.5-0.8-0.7-1.3c-0.2-0.3-0.3-0.6-0.5-0.9c-0.1-0.2-0.2-0.5-0.4-0.8c-0.1-0.2-0.2-0.3-0.2-0.5c-0.1-0.3-0.2-0.5-0.3-0.8
	c-0.1-0.3-0.2-0.5-0.3-0.8c-0.2-0.4-0.3-0.9-0.5-1.3c-0.1-0.4-0.3-0.8-0.4-1.3c-0.2-0.7-0.4-1.3-0.6-2c-0.1-0.5-0.2-1-0.3-1.5
	c0,0,0,0,0,0c-0.1-0.5-0.2-1-0.3-1.4c0-0.2-0.1-0.3-0.1-0.5c-0.1-0.3-0.1-0.7-0.2-1c0-0.2,0-0.3-0.1-0.5c-0.1-0.4-0.1-0.9-0.1-1.3
	c0,0,0-0.1,0-0.2c0-0.3-0.1-0.7-0.1-1c0-0.3,0-0.6,0-0.8c-0.5-14.7,6.7-30.7,21.1-44c-0.5-0.2-0.9-0.5-1.4-0.7
	c-0.2-0.1-0.4-0.2-0.5-0.2c-0.4-0.2-0.8-0.4-1.2-0.5c-0.6-0.3-1.2-0.5-1.9-0.8c-0.6-0.2-1.1-0.5-1.7-0.6c-0.6-0.2-1.2-0.4-1.7-0.6
	c-0.6-0.2-1.2-0.4-1.7-0.5c-1.2-0.3-2.3-0.7-3.5-0.9c-0.6-0.1-1.2-0.3-1.8-0.4c-0.6-0.1-1.2-0.2-1.8-0.3c-0.6-0.1-1.2-0.2-1.8-0.3
	c-0.6-0.1-1.2-0.2-1.8-0.2c-0.8-0.1-1.6-0.2-2.4-0.2c-1-0.1-1.9-0.1-2.9-0.1c-1.2-0.1-2.5-0.1-3.7,0c-0.2,0-0.4,0-0.6,0h-0.1
	c-0.1,0-0.3,0-0.4,0c-0.1,0-0.1,0-0.2,0c-0.1,0-0.2,0-0.2,0c0,0-0.1,0-0.1,0c-0.1,0-0.2,0-0.3,0c-0.1,0-0.2,0-0.3,0
	c-0.2,0-0.5,0-0.8,0.1c-0.2,0-0.4,0-0.6,0c-0.1,0-0.2,0-0.4,0c-0.9,0.1-1.9,0.2-2.9,0.3s-1.9,0.3-2.8,0.5c-0.5,0.1-1,0.2-1.5,0.3
	c-0.3,0.1-0.6,0.1-0.9,0.2c-0.2,0-0.5,0.1-0.7,0.2c0,0-0.1,0-0.1,0c0,0-0.1,0-0.1,0c-0.1,0-0.2,0-0.2,0.1c-0.1,0-0.1,0-0.2,0
	c-0.1,0-0.3,0.1-0.4,0.1c-0.5,0.1-0.9,0.2-1.4,0.4c-0.1,0-0.1,0-0.2,0.1c-0.3,0.1-0.7,0.2-1,0.3c-1,0.3-1.9,0.7-2.9,1
	c-0.4,0.2-0.9,0.4-1.3,0.5c-0.4,0.2-0.9,0.4-1.3,0.6c-0.4,0.2-0.7,0.3-1.1,0.5c-0.1,0.1-0.3,0.1-0.5,0.2c-0.4,0.2-0.8,0.4-1.2,0.6
	c-0.4,0.2-0.7,0.4-1.1,0.6c-0.4,0.2-0.8,0.5-1.3,0.7c-0.4,0.2-0.7,0.4-1,0.6c-0.3,0.2-0.6,0.4-0.9,0.6c-0.3,0.2-0.5,0.4-0.8,0.5
	c-0.3,0.2-0.7,0.5-1,0.7c-0.4,0.3-0.7,0.5-1.1,0.8c-0.3,0.2-0.5,0.4-0.8,0.6c-0.9,0.7-2,0.8-2.9,0.5h0c-1.3-0.5-2.2-1.8-1.9-3.4
	c0,0,0,0,0,0c0-0.1,0-0.1,0.1-0.2c0.1-0.3,0.2-0.5,0.3-0.8c0.2-0.6,0.4-1.2,0.6-1.9c0.2-0.6,0.5-1.2,0.7-1.8
	c0.2-0.4,0.3-0.8,0.5-1.2c0.2-0.4,0.3-0.8,0.5-1.2c0.2-0.4,0.4-0.8,0.5-1.2s0.4-0.8,0.6-1.2c0.4-0.8,0.8-1.5,1.2-2.3
	c0.2-0.4,0.4-0.7,0.6-1.1l0,0c0.2-0.4,0.4-0.7,0.7-1.1c0.7-1.1,1.4-2.1,2.1-3.2c0.2-0.3,0.5-0.7,0.8-1c0.3-0.3,0.5-0.7,0.8-1
	c1.3-1.7,2.7-3.2,4.2-4.7c0.3-0.3,0.6-0.6,0.9-0.9c0.3-0.3,0.6-0.6,0.9-0.9c0.2-0.2,0.5-0.4,0.7-0.6c1-0.9,2-1.8,3.1-2.6
	c0.3-0.3,0.7-0.5,1-0.8c0.3-0.2,0.7-0.5,1-0.7c0.3-0.2,0.7-0.5,1-0.7c0.3-0.2,0.7-0.5,1-0.7c0.3-0.2,0.5-0.3,0.8-0.5
	c0.8-0.5,1.5-0.9,2.3-1.3c0.3-0.2,0.6-0.4,1-0.5c1.2-0.6,2.4-1.2,3.6-1.8c0.4-0.2,0.8-0.3,1.2-0.5c0.5-0.2,1-0.4,1.5-0.6
	s1-0.4,1.5-0.5c0.1,0,0.2-0.1,0.3-0.1c0.3-0.1,0.6-0.2,0.9-0.3c1.2-0.4,2.3-0.7,3.5-1c0.3-0.1,0.7-0.2,1-0.2
	c1.2-0.3,2.5-0.5,3.8-0.7c0.3,0,0.6-0.1,0.9-0.1c1.5-0.2,3-0.4,4.5-0.4c0.3,0,0.6,0,0.9-0.1c0.4,0,0.7,0,1,0c0.4,0,0.9,0,1.3,0
	c4.6,0,9.4,0.6,14.1,1.8c-0.6-0.8-1.3-1.5-2-2.2c-0.9-1-1.9-1.9-2.9-2.8c-0.4-0.3-0.7-0.7-1.1-1c-0.2-0.2-0.4-0.4-0.6-0.6
	c-0.5-0.4-1-0.8-1.5-1.2c-0.2-0.2-0.5-0.4-0.7-0.6c-0.2-0.2-0.5-0.4-0.7-0.5c-0.5-0.4-1-0.7-1.5-1.1c-0.8-0.6-1.6-1.1-2.5-1.6
	c-0.4-0.3-0.8-0.5-1.3-0.8c-0.4-0.2-0.9-0.5-1.3-0.7c-0.4-0.2-0.9-0.5-1.3-0.7c-0.4-0.2-0.9-0.5-1.3-0.7c-0.4-0.2-0.9-0.4-1.3-0.6
	c-0.5-0.2-0.9-0.4-1.4-0.6c-0.5-0.2-0.9-0.4-1.4-0.5c-0.3-0.1-0.7-0.2-1-0.4c-0.3-0.1-0.7-0.2-1-0.4c-0.4-0.1-0.8-0.3-1.3-0.4
	c-0.8-0.2-1.6-0.5-2.3-0.7c-0.4-0.1-0.9-0.2-1.3-0.3c-0.6-0.2-1.3-0.3-1.9-0.4c-0.6-0.1-1.3-0.2-1.9-0.3c-0.4-0.1-0.8-0.1-1.2-0.2
	c-0.2,0-0.4,0-0.5-0.1c-0.3,0-0.6-0.1-0.9-0.1c-0.3,0-0.5-0.1-0.8-0.1c-0.9-0.1-1.8-0.1-2.7-0.2c-0.6,0-1.1,0-1.7,0
	c-0.5,0-1.1,0-1.6,0c-0.4,0-0.9,0-1.3,0.1c-0.2,0-0.5,0-0.8,0.1h-0.1c-1.3,0.1-2.3-0.6-2.9-1.6c-0.6-1.1-0.5-2.5,0.6-3.5
	c0,0,0.1-0.1,0.1-0.1c0.8-0.7,1.6-1.4,2.4-2c0.5-0.4,0.9-0.7,1.4-1.1c0.5-0.3,0.9-0.7,1.4-1c0.5-0.3,0.9-0.6,1.4-1
	c0.5-0.3,1-0.6,1.4-0.9c0.4-0.3,0.9-0.5,1.3-0.8c0.1-0.1,0.3-0.2,0.4-0.2c0.4-0.2,0.8-0.5,1.2-0.7c0.5-0.3,1-0.5,1.5-0.8
	c0.5-0.3,1-0.5,1.5-0.8c0.5-0.2,1-0.5,1.5-0.7c0.5-0.2,1-0.5,1.5-0.7c1.1-0.5,2.1-0.9,3.2-1.3c0.3-0.1,0.7-0.2,1-0.4
	c0.6-0.2,1.2-0.4,1.8-0.6c0.5-0.2,0.9-0.3,1.4-0.4c0.6-0.2,1.1-0.3,1.7-0.4c0.5-0.1,0.9-0.2,1.4-0.3c0.5-0.1,1-0.2,1.4-0.3
	c0.3-0.1,0.6-0.1,1-0.2c0.3,0,0.6-0.1,0.8-0.1c0,0,0.1,0,0.1,0c0.4-0.1,0.8-0.1,1.2-0.2c0.5-0.1,1-0.1,1.5-0.2c0,0,0,0,0,0
	c0.5-0.1,1-0.1,1.5-0.1c0.4,0,0.7-0.1,1.1-0.1c0.3,0,0.6,0,0.9,0c0.3,0,0.7,0,1,0c0.5,0,1,0,1.5,0c24.1,0,46.1,15.9,51.2,43.8
	c1.4-7.8,4.2-14.7,8-20.6c0.4-0.6,0.8-1.3,1.3-1.9c9.8-13.8,25.3-21.3,41.9-21.3c0.5,0,1,0,1.5,0c0.3,0,0.7,0,1,0c0.3,0,0.6,0,0.9,0
	c0.4,0,0.7,0,1.1,0.1c0.5,0,0.9,0.1,1.4,0.1c1,0.1,2,0.2,2.9,0.4c0.3,0.1,0.6,0.1,0.9,0.2c0.6,0.1,1.3,0.2,1.9,0.4
	c0.3,0.1,0.7,0.1,1,0.2c0.4,0.1,0.8,0.2,1.2,0.3c1.5,0.4,3.1,0.8,4.6,1.4c0.3,0.1,0.7,0.2,1,0.4c1.1,0.4,2.2,0.8,3.3,1.3
	c0.5,0.2,0.9,0.4,1.4,0.6c0.4,0.2,0.7,0.3,1.1,0.5c0.3,0.2,0.6,0.3,1,0.5c0.1,0.1,0.3,0.1,0.4,0.2c0.3,0.2,0.7,0.4,1.1,0.6
	c0.4,0.2,0.8,0.5,1.2,0.7c0.4,0.2,0.8,0.5,1.2,0.7c0.4,0.2,0.8,0.5,1.2,0.7c0.3,0.2,0.6,0.4,0.9,0.6c0.2,0.2,0.5,0.3,0.7,0.5
	c0.4,0.3,0.9,0.6,1.3,0.9c0.5,0.3,0.9,0.7,1.4,1c0.5,0.3,0.9,0.7,1.4,1.1c0.8,0.6,1.6,1.3,2.4,2c0,0,0,0,0,0
	c2.2,1.9,0.6,5.4-2.2,5.2h0c-0.6-0.1-1.2-0.1-1.8-0.1c-15-0.6-29.7,5.6-40.4,16.3c-0.5,0.5-1.1,1.1-1.6,1.6v0
	c-0.3,0.3-0.5,0.5-0.8,0.8c-0.2,0.3-0.5,0.6-0.7,0.8h0c4.8-1.2,9.5-1.8,14.1-1.8c0.4,0,0.9,0,1.3,0c0.3,0,0.7,0,1,0
	c0.3,0,0.6,0,1,0.1c0.9,0,1.8,0.1,2.7,0.2c0.3,0,0.5,0.1,0.8,0.1c0.3,0,0.6,0.1,0.9,0.1c0.3,0,0.5,0.1,0.8,0.1
	c1.3,0.2,2.6,0.4,3.9,0.7c0.4,0.1,0.7,0.2,1.1,0.3c0.6,0.1,1.2,0.3,1.8,0.5c0.3,0.1,0.6,0.2,0.9,0.2c0.9,0.3,1.8,0.6,2.7,0.9
	c0.7,0.2,1.4,0.5,2.1,0.8c0.3,0.1,0.7,0.3,1,0.4c0.3,0.2,0.7,0.3,1,0.5c0.2,0.1,0.4,0.2,0.6,0.3c0.3,0.1,0.6,0.3,0.9,0.4
	c0.2,0.1,0.4,0.2,0.6,0.3c0.3,0.1,0.6,0.3,0.9,0.5c1.3,0.7,2.6,1.4,3.8,2.2c0.3,0.2,0.6,0.4,0.9,0.6c0.2,0.1,0.5,0.3,0.7,0.5
	c0.4,0.2,0.8,0.5,1.1,0.8c0.3,0.2,0.6,0.4,0.9,0.6c0.9,0.7,1.8,1.4,2.6,2.1c0.5,0.5,1.1,1,1.6,1.4c0.3,0.2,0.5,0.5,0.8,0.8
	c0.3,0.3,0.5,0.5,0.8,0.8c0.2,0.2,0.5,0.5,0.7,0.7c0.8,0.8,1.6,1.6,2.3,2.5c0.5,0.6,1,1.1,1.4,1.7c0.2,0.3,0.5,0.6,0.7,0.9
	c0.2,0.3,0.4,0.6,0.7,0.9c0.4,0.6,0.9,1.2,1.3,1.8c0.2,0.3,0.4,0.6,0.6,0.9c1,1.6,2,3.2,2.8,4.9c0.2,0.3,0.3,0.7,0.5,1c0,0,0,0,0,0
	c0.2,0.3,0.3,0.7,0.5,1c0.2,0.3,0.3,0.7,0.5,1c0.6,1.4,1.2,2.8,1.7,4.3c0.1,0.3,0.2,0.7,0.4,1c0.1,0.4,0.3,0.8,0.4,1.2c0,0,0,0,0,0
	C326.9,136.1,323.6,138.3,321.3,136.5z"/>
<path class="st1" d="M196.7,98.9c0,0-2.2-1.1-24.8-4.1c-0.6-0.8-1.3-1.5-2-2.2c-0.9-1-1.9-1.9-2.9-2.8c-0.4-0.3-0.7-0.7-1.1-1
	c-0.2-0.2-0.4-0.4-0.6-0.6c-0.5-0.4-1-0.8-1.5-1.2c-0.2-0.2-0.5-0.4-0.7-0.6c-0.2-0.2-0.5-0.4-0.7-0.5c-0.5-0.4-1-0.7-1.5-1.1
	c-0.8-0.6-1.6-1.1-2.5-1.6c-0.4-0.3-0.8-0.5-1.3-0.8c-0.4-0.2-0.9-0.5-1.3-0.7c-0.4-0.2-0.9-0.5-1.3-0.7c-0.4-0.2-0.9-0.5-1.3-0.7
	c-0.4-0.2-0.9-0.4-1.3-0.6c-0.5-0.2-0.9-0.4-1.4-0.6c-0.5-0.2-0.9-0.4-1.4-0.5c-0.3-0.1-0.7-0.2-1-0.4c-0.3-0.1-0.7-0.2-1-0.4
	c-0.4-0.2-0.8-0.3-1.3-0.4c-0.8-0.2-1.6-0.5-2.3-0.7c-0.4-0.1-0.9-0.2-1.3-0.3c-0.6-0.2-1.3-0.3-1.9-0.4c-0.6-0.1-1.3-0.2-1.9-0.3
	c-0.4-0.1-0.8-0.1-1.2-0.2c-0.2,0-0.4,0-0.5-0.1c-0.3,0-0.6-0.1-0.9-0.1c-0.3,0-0.5-0.1-0.8-0.1c-0.9-0.1-1.8-0.1-2.7-0.2
	c-0.6,0-1.1,0-1.7,0c-0.5,0-1.1,0-1.6,0c-0.4,0-0.9,0-1.3,0.1c-0.2,0-0.5,0-0.8,0.1h-0.1c-1.3,0.1-2.3-0.6-2.9-1.6
	C137.2,67.9,170.3,59.5,196.7,98.9z"/>
<path class="st1" d="M198.5,119.1c0,0-17.2,1.4-27.2,12.5c-0.5-0.2-0.9-0.5-1.4-0.7c-0.2-0.1-0.4-0.2-0.5-0.2
	c-0.4-0.2-0.8-0.4-1.2-0.5c-0.6-0.3-1.2-0.5-1.9-0.8c-0.6-0.2-1.1-0.5-1.7-0.6c-0.6-0.2-1.2-0.4-1.7-0.6c-0.6-0.2-1.2-0.4-1.7-0.5
	c-1.2-0.3-2.3-0.7-3.5-0.9c-0.6-0.1-1.2-0.3-1.8-0.4c-0.6-0.1-1.2-0.2-1.8-0.3c-0.6-0.1-1.2-0.2-1.8-0.3c-0.6-0.1-1.2-0.2-1.8-0.2
	c-0.8-0.1-1.6-0.2-2.4-0.2c-1-0.1-1.9-0.1-2.9-0.1c-0.6,0-1.2,0-1.9,0c-0.4,0-0.8,0-1.1,0c-0.2,0-0.3,0-0.5,0h-0.2
	c-0.2,0-0.4,0-0.6,0h-0.1c-0.1,0-0.3,0-0.4,0c-0.1,0-0.1,0-0.2,0c-0.1,0-0.1,0-0.2,0h0c0,0,0,0,0,0c0,0-0.1,0-0.1,0
	c-0.2,0-0.4,0-0.7,0c-0.2,0-0.5,0-0.8,0.1c-0.3,0-0.6,0-1,0.1c-0.9,0.1-1.9,0.2-2.9,0.3c-0.9,0.1-1.9,0.3-2.8,0.5
	c-0.5,0.1-1,0.2-1.5,0.3c-0.3,0.1-0.6,0.1-0.9,0.2c-0.2,0-0.5,0.1-0.7,0.2c0,0-0.1,0-0.1,0c0,0-0.1,0-0.1,0c-0.1,0-0.2,0-0.2,0.1
	c-0.1,0-0.1,0-0.2,0c-0.1,0-0.3,0.1-0.4,0.1c-0.5,0.1-0.9,0.3-1.4,0.4c-0.1,0-0.1,0-0.2,0.1c-0.3,0.1-0.7,0.2-1,0.3
	c-1,0.3-1.9,0.7-2.9,1c-0.4,0.2-0.9,0.4-1.3,0.5c-0.4,0.2-0.9,0.4-1.3,0.6c-0.4,0.2-0.7,0.3-1.1,0.5c-0.1,0.1-0.3,0.1-0.5,0.2
	c-0.4,0.2-0.8,0.4-1.2,0.6c-0.4,0.2-0.7,0.4-1.1,0.6c-0.4,0.2-0.8,0.5-1.3,0.7c-0.4,0.2-0.7,0.4-1,0.6c-0.3,0.2-0.6,0.4-0.9,0.6
	c-0.3,0.2-0.5,0.4-0.8,0.5c-0.3,0.2-0.7,0.5-1,0.7c-0.4,0.3-0.7,0.5-1.1,0.8c-0.4,0.3-0.8,0.6-1.1,0.9c0.1-0.1,0.2-0.2,0.4-0.3
	c-0.9,0.7-2,0.8-2.9,0.5C116,123,146.3,91.9,198.5,119.1z"/>
<path class="st1" d="M215,137.7c-0.1,0-0.3,0-0.4,0.1c-0.1,0-0.2,0-0.3,0.1c-0.1,0-0.2,0-0.2,0.1c-1.3,0.4-2.8,1.2-4.4,2.2
	c-0.2,0.1-0.3,0.2-0.5,0.3c-0.6,0.4-1.3,0.9-1.9,1.3c-0.3,0.2-0.5,0.4-0.8,0.6c-0.4,0.3-0.7,0.5-1.1,0.8c-0.3,0.2-0.6,0.5-1,0.8
	c-0.2,0.2-0.4,0.3-0.6,0.5c-1.3,1.1-2.5,2.1-3.4,2.9h0v0h0c-0.1,0.1-0.1,0.1-0.2,0.2h0c-0.2,0.2-0.4,0.3-0.6,0.5
	c-0.1,0.1-0.1,0.1-0.2,0.2c-0.5,0.4-1,0.9-1.5,1.3c0,0-0.1,0.1-0.1,0.1c-0.2,0.2-0.5,0.4-0.7,0.6c-0.2,0.2-0.5,0.4-0.7,0.6
	c-0.2,0.2-0.3,0.3-0.5,0.5c-0.1,0.1-0.3,0.2-0.4,0.4c-0.2,0.2-0.4,0.3-0.5,0.5c-0.3,0.3-0.6,0.6-0.9,0.9c-0.2,0.2-0.5,0.5-0.7,0.7
	c-0.2,0.2-0.5,0.5-0.7,0.7c-0.1,0-0.1,0.1-0.1,0.1c0,0,0,0,0,0c0,0,0,0,0,0c-1.1,1.1-2.1,2.3-3.1,3.4c-0.5,0.6-1,1.2-1.5,1.8
	c-0.4,0.5-0.8,1-1.2,1.6c-0.3,0.4-0.6,0.7-0.8,1.1c-0.3,0.4-0.5,0.7-0.8,1.1c-0.3,0.4-0.5,0.8-0.8,1.1c-0.2,0.3-0.4,0.7-0.6,1
	c-0.4,0.6-0.8,1.2-1.2,1.9c-0.3,0.5-0.5,0.9-0.8,1.3c-0.2,0.3-0.4,0.7-0.6,1c-0.2,0.3-0.4,0.7-0.5,1c-0.1,0.3-0.3,0.5-0.4,0.8
	c-0.4,0.9-0.8,1.7-1.2,2.6c-0.4,0.9-0.8,1.8-1.1,2.8c-0.1,0.3-0.2,0.6-0.3,0.9c0,0,0,0.1,0,0.1c-0.1,0.1-0.1,0.3-0.1,0.4
	c0,0.1-0.1,0.2-0.1,0.3c0,0,0,0.1-0.1,0.2c-0.1,0.3-0.2,0.6-0.3,0.9c-0.1,0.5-0.2,0.9-0.4,1.4c-0.1,0.5-0.2,0.9-0.3,1.4
	c-0.1,0.5-0.2,0.9-0.3,1.4c-0.1,0.3-0.1,0.7-0.1,1c0,0.3-0.1,0.6-0.1,0.8c0,0,0,0,0,0c0,0.1,0,0.3,0,0.4c0,0.2,0,0.4-0.1,0.6
	c0,0.5-0.1,0.9-0.1,1.4c0,0,0,0.1,0,0.1c0,0.4,0,0.9,0,1.3v0.4c0,0.3,0,0.7,0,1c0,0.2,0,0.4,0,0.5c0,0.1,0,0.2,0,0.3
	c0,0.2,0,0.3,0,0.5c0,0,0,0,0,0.1c0,0.3,0,0.5,0.1,0.8c0,0.2,0,0.3,0,0.5c0,0.2,0,0.3,0.1,0.5c0,0.1,0,0.3,0.1,0.4
	c0,0.2,0.1,0.4,0.1,0.7c0,0.2,0.1,0.3,0.1,0.5s0.1,0.3,0.1,0.5c0,0,0,0,0,0.1c0,0.2,0.1,0.4,0.1,0.5c0,0.2,0.1,0.5,0.1,0.7
	c0.1,0.4,0.2,0.9,0.3,1.3c0.1,0.3,0.2,0.6,0.3,0.9c0,0.1,0.1,0.2,0.1,0.3c0.1,0.3,0.2,0.6,0.3,0.9c0.1,0.4,0.3,0.8,0.4,1.2
	c0.1,0.3,0.2,0.6,0.4,1c0.2,0.4,0.3,0.8,0.5,1.2c0.1,0.3,0.3,0.6,0.4,1c0.4,0.8,0.8,1.6,1.3,2.5c0.5,0.9,0.5,1.8,0.2,2.6
	c-9.4-10.5-26.4-35.8-4.2-61.1c4.3-4.9,13.3-10.5,22.5-12.6C204.7,135.5,210.3,135.6,215,137.7z"/>
<g>
	<path class="st16" d="M257,330.4h-20.5c-0.1-0.3-0.1-0.7-0.2-1c-0.1-0.8-0.2-1.7-0.4-2.5c-0.1-1-0.3-2-0.5-3c0-0.1,0-0.1,0-0.2
		s0-0.1,0-0.2c0.2,0,0.4,0,0.6,0h19.9c0.2,1.2,0.4,2.3,0.6,3.5C256.6,328.1,256.8,329.2,257,330.4z"/>
	<path class="st16" d="M235.4,323.4c0,0.1,0,0.1,0,0.2C235.5,323.6,235.4,323.5,235.4,323.4L235.4,323.4z"/>
	<path class="st16" d="M236,326.9c0.1,0.8,0.2,1.7,0.4,2.5C236.2,328.5,236.1,327.7,236,326.9c-0.2-1-0.3-2-0.5-3
		C235.7,324.9,235.8,325.9,236,326.9z"/>
	<path class="st16" d="M236.5,330.4L236.5,330.4c-0.1-0.3-0.1-0.7-0.2-1C236.4,329.7,236.4,330,236.5,330.4z"/>
</g>
<path class="st17" d="M272.3,281.7c-0.3,0.1-0.7,0.2-1.1,0.2h-23.9c-0.3-1.2-0.6-2.3-0.9-3.5s-0.6-2.3-0.9-3.5H270
	c0.4,1.2,0.8,2.3,1.2,3.5C271.6,279.5,271.9,280.6,272.3,281.7z"/>
<path class="st16" d="M247.3,281.9h-20.5c-0.3-1.2-0.6-2.3-0.8-3.5c-0.3-1.1-0.6-2.3-0.9-3.4c0.3-0.1,0.6-0.1,0.9-0.1h19.6
	c0.3,1.2,0.6,2.3,0.9,3.5S247,280.8,247.3,281.9z"/>
<path class="st17" d="M256,233.3c-0.4,0.1-0.7,0.2-1.1,0.2h-18.2c-0.7,0-1.3-0.2-1.8-0.5c-0.4-1.6-0.8-3.2-1.2-4.8v0
	c0.6-1,1.7-1.7,3-1.7h17.1c0.4,1.2,0.8,2.3,1.1,3.5C255.2,231,255.6,232.1,256,233.3z"/>
<path class="st16" d="M224.6,185h-20.5c-0.2-1.2-0.4-2.3-0.5-3.5c-0.2-1.1-0.3-2.3-0.5-3.5c0.2,0,0.3,0,0.5,0h20
	c0.2,1.2,0.3,2.3,0.5,3.5C224.2,182.6,224.4,183.8,224.6,185z"/>
<path class="st17" d="M241.7,184.9c-0.3,0.1-0.5,0.1-0.8,0.1h-16.3c-0.2-1.2-0.4-2.3-0.6-3.5c-0.2-1.2-0.3-2.3-0.5-3.5h16.5
	c0.3,1.2,0.5,2.3,0.8,3.5C241.1,182.6,241.4,183.7,241.7,184.9z"/>
</svg>
